# File created by Blade
# Date/Time:  Wed Apr 08 14:10:43 2015
#---------------------------------------------------------
:version 1.10
:name HOM
:units
  mass 1.0
  length 1.000000
  angle deg
:documentation
     Acclaim Skeleton File
:root
   axis xyz
   order TX TY TZ RX RY RZ
   position 0.000000 0.000000 0.000000
   orientation 0 0 0
:bonedata
   begin
      id 1
      name Spine_dum
      direction 0.000000 1.000000 0.000000
      length 4.885285
      axis 0.0 0.0 0.0 xyz
   end
   begin
      id 2
      name LeftUpLeg_dum
      direction 1.000000 0.000000 0.000000
      length 2.672193
      axis 0.0 0.0 0.0 xyz
   end
   begin
      id 3
      name RightUpLeg_dum
      direction -1.000000 0.000000 0.000000
      length 2.672193
      axis 0.0 0.0 0.0 xyz
   end
   begin
      id 4
      name Spine
      direction 0.000000 1.000000 0.000000
      length 0.000000
      axis 0.0 0.0 0.0 xyz
      dof rx ry rz
   end
   begin
      id 5
      name Spine_dum1
      direction 0.000000 1.000000 0.000000
      length 16.494159
      axis 0.0 0.0 0.0 xyz
   end
   begin
      id 6
      name Spine_dum2
      direction 0.000000 1.000000 0.000000
      length 10.663448
      axis 0.0 0.0 0.0 xyz
   end
   begin
      id 7
      name Spine_dum3
      direction 0.000000 1.000000 0.000000
      length 10.663448
      axis 0.0 0.0 0.0 xyz
   end
   begin
      id 8
      name Head
      direction 0.000000 1.000000 0.000000
      length 4.527550
      axis 0.0 0.0 0.0 xyz
      dof rx ry rz
   end
   begin
      id 9
      name LeftShoulder
      direction 1.000000 0.000000 0.000000
      length 7.531907
      axis 0.0 0.0 -90.0 xyz
      dof rx ry rz
   end
   begin
      id 10
      name LeftArm
      direction 1.000000 0.000000 0.000000
      length 10.229199
      axis 0.0 0.0 -90.0 xyz
      dof rx ry rz
   end
   begin
      id 11
      name LeftForeArm
      direction 1.000000 0.000000 0.000000
      length 8.673495
      axis 0.0 0.0 -90.0 xyz
      dof ry rz rx
   end
   begin
      id 12
      name LeftHand
      direction 0.000000 0.000000 0.000000
      length 0.000000
      axis 0.0 0.0 -90.0 xyz
      dof rx ry rz
   end
   begin
      id 13
      name LeftHand_dum1
      direction 0.000000 0.000000 0.000000
      length 0.000000
      axis 0.0 0.0 -90.0 xyz
   end
   begin
      id 14
      name LeftHand_dum2
      direction 1.000000 0.000000 0.000000
      length 3.937000
      axis 0.0 0.0 -90.0 xyz
   end
   begin
      id 15
      name LeftHandThumb1
      direction 0.000000 0.000000 1.000000
      length 3.937000
      axis 0.0 0.0 -90.0 xyz
      dof rx rz ry
   end
   begin
      id 16
      name RightShoulder
      direction -1.000000 0.000000 0.000000
      length 7.531907
      axis 0.0 0.0 90.0 xyz
      dof rx ry rz
   end
   begin
      id 17
      name RightArm
      direction -1.000000 0.000000 0.000000
      length 10.229199
      axis 0.0 0.0 90.0 xyz
      dof rx ry rz
   end
   begin
      id 18
      name RightForeArm
      direction -1.000000 0.000000 0.000000
      length 8.673495
      axis 0.0 0.0 90.0 xyz
      dof ry rz rx
   end
   begin
      id 19
      name RightHand
      direction 0.000000 0.000000 0.000000
      length 0.000000
      axis 0.0 0.0 90.0 xyz
      dof rx ry rz
   end
   begin
      id 20
      name RightHand_dum1
      direction 0.000000 0.000000 0.000000
      length 0.000000
      axis 0.0 0.0 90.0 xyz
   end
   begin
      id 21
      name RightHand_dum2
      direction -1.000000 0.000000 0.000000
      length 3.937000
      axis 0.0 0.0 90.0 xyz
   end
   begin
      id 22
      name RightHandThumb1
      direction 0.000000 0.000000 1.000000
      length 3.937000
      axis 0.0 0.0 90.0 xyz
      dof rx rz ry
   end
   begin
      id 23
      name LeftUpLeg
      direction 0.000000 -1.000000 0.000000
      length 16.263388
      axis 0.0 0.0 0.0 xyz
      dof rx ry rz
   end
   begin
      id 24
      name LeftLeg
      direction 0.000000 -1.000000 0.000000
      length 14.328163
      axis 0.0 0.0 0.0 xyz
      dof rx ry rz
   end
   begin
      id 25
      name LeftFoot
      direction 0.000000 -0.258819 0.965926
      length 5.031290
      axis 15.0 0.0 0.0 xyz
      dof rx ry rz
   end
   begin
      id 26
      name LeftToeBase
      direction 0.000000 0.000000 1.000000
      length 2.952750
      axis 0.0 0.0 0.0 xyz
      dof rx ry rz
   end
   begin
      id 27
      name RightUpLeg
      direction 0.000000 -1.000000 0.000000
      length 16.263388
      axis 0.0 0.0 0.0 xyz
      dof rx ry rz
   end
   begin
      id 28
      name RightLeg
      direction 0.000000 -1.000000 0.000000
      length 14.328163
      axis 0.0 0.0 0.0 xyz
      dof rx ry rz
   end
   begin
      id 29
      name RightFoot
      direction 0.000000 -0.258819 0.965926
      length 5.031290
      axis 15.0 0.0 0.0 xyz
      dof rx ry rz
   end
   begin
      id 30
      name RightToeBase
      direction 0.000000 0.000000 1.000000
      length 2.952750
      axis 0.0 0.0 0.0 xyz
      dof rx ry rz
   end
:hierarchy
   begin
      root Spine_dum LeftUpLeg_dum RightUpLeg_dum
      Spine_dum Spine
      LeftUpLeg_dum LeftUpLeg
      RightUpLeg_dum RightUpLeg
      Spine Spine_dum1 Spine_dum2 Spine_dum3
      Spine_dum1 Head
      Spine_dum2 LeftShoulder
      Spine_dum3 RightShoulder
      LeftShoulder LeftArm
      LeftArm LeftForeArm
      LeftForeArm LeftHand
      LeftHand LeftHand_dum1 LeftHand_dum2
      LeftHand_dum1 LeftHandThumb1
      RightShoulder RightArm
      RightArm RightForeArm
      RightForeArm RightHand
      RightHand RightHand_dum1 RightHand_dum2
      RightHand_dum1 RightHandThumb1
      LeftUpLeg LeftLeg
      LeftLeg LeftFoot
      LeftFoot LeftToeBase
      RightUpLeg RightLeg
      RightLeg RightFoot
      RightFoot RightToeBase
   end

# File created by Blade
# Date/Time:  Wed Apr 08 14:10:35 2015
# Frame Rate: 120.000 fps
#------------------------------------------------------
:FULLY-SPECIFIED
:DEGREES
121
root -0.425101 32.627086 -17.804000 5.614991 4.553720 -2.180049
Spine -6.359219 -7.003598 2.172266
Head 22.524685 -4.607499 -1.312801
LeftShoulder -17.408753 45.354194 2.681980
LeftArm 52.776748 -0.387650 -85.737867
LeftForeArm -29.475429 -0.000000 -0.928884
LeftHand -0.041023 -0.000000 -30.719355
LeftHandThumb1 -26.253704 0.000000 33.147579
RightShoulder -4.486446 -8.825826 -14.707322
RightArm 14.930076 -5.544253 83.089840
RightForeArm 14.001608 -0.000000 6.059735
RightHand -0.203914 -0.000000 17.858062
RightHandThumb1 -24.326973 -0.000000 -32.862282
LeftUpLeg -14.762122 -6.036351 1.856488
LeftLeg 28.757059 -0.000000 -0.000000
LeftFoot -19.709688 5.951150 -24.636542
LeftToeBase -7.469089 -0.000000 0.000000
RightUpLeg 0.087084 1.254887 5.324262
RightLeg -8.085070 -0.000000 0.000000
RightFoot -2.742085 -14.550958 7.050195
RightToeBase -5.105214 -0.000000 0.000000
122
root -0.402009 32.624102 -17.826418 5.727192 4.512573 -2.285947
Spine -6.433737 -6.991025 2.212142
Head 22.511873 -4.695815 -1.166339
LeftShoulder -17.153555 45.286570 2.803441
LeftArm 52.498541 0.813621 -85.511537
LeftForeArm -30.161203 -0.000000 -0.883090
LeftHand 0.136160 -0.000000 -30.730132
LeftHandThumb1 -26.253704 0.000000 33.147579
RightShoulder -4.510737 -8.924601 -14.490226
RightArm 14.934412 -5.841812 83.712734
RightForeArm 14.388064 -0.000000 6.300742
RightHand -0.211358 -0.000000 18.056503
RightHandThumb1 -24.326973 -0.000000 -32.862282
LeftUpLeg -14.714446 -5.793962 1.748540
LeftLeg 28.561063 -0.000000 -0.000000
LeftFoot -19.482384 6.735000 -24.203103
LeftToeBase -7.087536 -0.000000 0.000000
RightUpLeg -0.095392 1.314650 5.374318
RightLeg -8.026952 -0.000000 0.000000
RightFoot -2.782104 -14.535154 7.117548
RightToeBase -5.025819 -0.000000 0.000000
123
root -0.377782 32.620616 -17.840005 5.758269 4.491347 -2.424267
Spine -6.439910 -7.036292 2.283449
Head 22.513791 -4.724907 -1.007344
LeftShoulder -16.962790 45.294849 2.879224
LeftArm 52.245396 1.983801 -85.277912
LeftForeArm -30.932367 -0.000000 -0.684439
LeftHand 0.154740 -0.000000 -30.367452
LeftHandThumb1 -26.253704 0.000000 33.147579
RightShoulder -4.484450 -9.016703 -14.281590
RightArm 14.935375 -6.059467 84.323384
RightForeArm 14.544412 -0.000000 6.565561
RightHand -0.255011 -0.000000 18.103615
RightHandThumb1 -24.326973 -0.000000 -32.862282
LeftUpLeg -14.568623 -5.396403 1.667774
LeftLeg 28.266952 -0.000000 -0.000000
LeftFoot -19.264993 7.521807 -23.747817
LeftToeBase -6.988113 -0.000000 0.000000
RightUpLeg -0.160039 1.321451 5.459156
RightLeg -8.018531 -0.000000 0.000000
RightFoot -2.792829 -14.500643 7.191640
RightToeBase -4.995547 -0.000000 0.000000
124
root -0.354074 32.617884 -17.851519 5.800888 4.421889 -2.523393
Spine -6.454462 -7.018342 2.292905
Head 22.507042 -4.761380 -0.848952
LeftShoulder -16.755425 45.259649 2.994468
LeftArm 51.957542 3.085561 -85.060011
LeftForeArm -31.540162 -0.000000 -0.409314
LeftHand 0.061961 -0.000000 -30.184230
LeftHandThumb1 -26.253704 0.000000 33.147579
RightShoulder -4.509762 -9.106540 -14.052753
RightArm 14.956934 -6.556573 84.826073
RightForeArm 14.778433 -0.000000 6.814869
RightHand -0.298439 0.000000 18.182072
RightHandThumb1 -24.326973 -0.000000 -32.862282
LeftUpLeg -14.384062 -4.986222 1.587184
LeftLeg 27.781281 -0.000000 -0.000000
LeftFoot -19.074741 8.252538 -23.435461
LeftToeBase -7.134463 -0.000000 0.000000
RightUpLeg -0.219517 1.387891 5.502888
RightLeg -8.031011 -0.000000 0.000000
RightFoot -2.783462 -14.486983 7.240629
RightToeBase -4.956034 -0.000000 0.000000
125
root -0.330858 32.616155 -17.869438 5.906700 4.377696 -2.651158
Spine -6.531571 -7.028142 2.348360
Head 22.502738 -4.827621 -0.703043
LeftShoulder -16.581260 45.288413 3.060820
LeftArm 51.786051 4.103443 -84.866617
LeftForeArm -31.883795 0.000000 -0.154898
LeftHand 0.096873 -0.000000 -29.933645
LeftHandThumb1 -26.253704 0.000000 33.147579
RightShoulder -4.526373 -9.195635 -13.834776
RightArm 14.993954 -7.187691 85.251722
RightForeArm 15.012908 -0.000000 7.082974
RightHand -0.311227 -0.000000 18.211209
RightHandThumb1 -24.326973 -0.000000 -32.862282
LeftUpLeg -14.241799 -4.643204 1.572564
LeftLeg 27.085252 -0.000000 -0.000000
LeftFoot -18.831417 8.803765 -23.171603
LeftToeBase -7.428050 -0.000000 0.000000
RightUpLeg -0.377936 1.467094 5.577389
RightLeg -7.990170 -0.000000 0.000000
RightFoot -2.813184 -14.518804 7.249155
RightToeBase -4.810176 -0.000000 0.000000
126
root -0.296847 32.615654 -17.883367 5.996656 4.296940 -2.718491
Spine -6.597327 -7.029560 2.358540
Head 22.504567 -4.818296 -0.571259
LeftShoulder -16.434080 45.309173 3.086366
LeftArm 51.606138 5.084696 -84.633098
LeftForeArm -32.107349 -0.000000 0.181759
LeftHand 0.200799 -0.000000 -29.385947
LeftHandThumb1 -26.253704 0.000000 33.147579
RightShoulder -4.532729 -9.330085 -13.616554
RightArm 15.117566 -7.776806 85.624693
RightForeArm 15.083213 -0.000000 7.285162
RightHand -0.317122 -0.000000 18.260778
RightHandThumb1 -24.326973 -0.000000 -32.862282
LeftUpLeg -14.001825 -4.329343 1.475653
LeftLeg 26.190787 -0.000000 -0.000000
LeftFoot -18.431664 9.666473 -22.117530
LeftToeBase -7.483245 -0.000000 0.000000
RightUpLeg -0.489775 1.596144 5.566053
RightLeg -7.990733 -0.000000 0.000000
RightFoot -2.824439 -14.556244 7.320003
RightToeBase -4.778404 -0.000000 0.000000
127
root -0.270538 32.614830 -17.902469 6.107712 4.212635 -2.834011
Spine -6.672183 -7.053898 2.409356
Head 22.481127 -4.781171 -0.431658
LeftShoulder -16.357222 45.343380 3.098361
LeftArm 51.542388 6.143514 -84.232993
LeftForeArm -32.164869 -0.000000 0.479911
LeftHand 0.260409 -0.000000 -28.766553
LeftHandThumb1 -26.253704 0.000000 33.147579
RightShoulder -4.484292 -9.420963 -13.408310
RightArm 15.222181 -8.354749 85.985840
RightForeArm 15.061579 -0.000000 7.473532
RightHand -0.269328 -0.000000 18.258597
RightHandThumb1 -24.326973 -0.000000 -32.862282
LeftUpLeg -13.795206 -3.960550 1.462597
LeftLeg 25.300314 -0.000000 -0.000000
LeftFoot -18.097603 10.201643 -21.445625
LeftToeBase -7.817962 -0.000000 0.000000
RightUpLeg -0.669758 1.511429 5.630565
RightLeg -7.932512 -0.000000 0.000000
RightFoot -2.798384 -14.372913 7.326324
RightToeBase -4.830629 -0.000000 0.000000
128
root -0.246915 32.614644 -17.926396 6.238752 4.138826 -2.981305
Spine -6.748625 -7.076531 2.482723
Head 22.430868 -4.761752 -0.269665
LeftShoulder -16.255019 45.356928 3.138278
LeftArm 51.672090 7.139096 -83.813578
LeftForeArm -31.789695 0.000000 0.461740
LeftHand 0.636613 -0.000000 -28.352668
LeftHandThumb1 -26.253704 0.000000 33.147579
RightShoulder -4.417384 -9.428651 -13.198293
RightArm 15.248794 -8.863000 86.346342
RightForeArm 14.970676 -0.000000 7.647462
RightHand -0.258241 -0.000000 18.228655
RightHandThumb1 -24.326973 -0.000000 -32.862282
LeftUpLeg -13.623283 -3.658683 1.518115
LeftLeg 24.493324 -0.000000 -0.000000
LeftFoot -17.972881 10.484056 -21.142052
LeftToeBase -7.629317 -0.000000 0.000000
RightUpLeg -0.895358 1.583625 5.727142
RightLeg -7.841111 -0.000000 0.000000
RightFoot -2.770250 -14.374027 7.290399
RightToeBase -4.829811 -0.000000 0.000000
129
root -0.219039 32.614532 -17.953024 6.369998 4.077678 -3.135464
Spine -6.813751 -7.084017 2.572305
Head 22.360926 -4.758885 -0.101908
LeftShoulder -16.092171 45.355620 3.245294
LeftArm 51.744444 8.201784 -83.286032
LeftForeArm -31.255986 -0.000000 0.714487
LeftHand 0.882486 -0.000000 -27.597507
LeftHandThumb1 -26.253704 0.000000 33.147579
RightShoulder -4.391508 -9.500668 -12.994536
RightArm 15.378512 -9.396040 86.652433
RightForeArm 14.861497 -0.000000 7.778287
RightHand -0.165748 -0.000000 18.103283
RightHandThumb1 -24.326973 -0.000000 -32.862282
LeftUpLeg -13.482279 -3.325012 1.592830
LeftLeg 23.837524 -0.000000 -0.000000
LeftFoot -17.821896 10.526559 -20.719540
LeftToeBase -7.673842 -0.000000 0.000000
RightUpLeg -1.142439 1.633289 5.824447
RightLeg -7.717715 -0.000000 0.000000
RightFoot -2.781319 -14.357540 7.277064
RightToeBase -4.797803 -0.000000 0.000000
130
root -0.196363 32.614043 -17.984200 6.539284 3.998755 -3.288272
Spine -6.889646 -7.101602 2.703658
Head 22.210298 -4.671901 -0.089853
LeftShoulder -16.189926 45.424134 3.078855
LeftArm 51.473321 7.593946 -84.914952
LeftForeArm -27.275368 -0.000000 1.480754
LeftHand 1.585399 -0.000000 -25.871390
LeftHandThumb1 -26.253704 0.000000 33.147579
RightShoulder -4.350301 -9.489967 -12.879874
RightArm 15.467997 -9.930743 87.027090
RightForeArm 14.704332 -0.000000 7.867612
RightHand -0.081427 -0.000000 18.022787
RightHandThumb1 -24.326973 -0.000000 -32.862282
LeftUpLeg -13.407117 -3.021529 1.695975
LeftLeg 23.288291 -0.000000 -0.000000
LeftFoot -17.686612 10.402575 -20.338650
LeftToeBase -7.684920 -0.000000 0.000000
RightUpLeg -1.445810 1.634815 5.936726
RightLeg -7.577765 -0.000000 0.000000
RightFoot -2.768288 -14.311940 7.231483
RightToeBase -4.796260 -0.000000 0.000000
131
root -0.170359 32.615432 -18.009314 6.671962 3.943223 -3.432224
Spine -6.971746 -7.131401 2.780201
Head 22.203007 -4.865109 0.073789
LeftShoulder -16.026766 45.497304 3.239093
LeftArm 51.624894 8.538541 -84.414820
LeftForeArm -25.701005 -0.000000 1.809623
LeftHand 1.864335 -0.000000 -24.824910
LeftHandThumb1 -26.253704 0.000000 33.147579
RightShoulder -4.259186 -9.531702 -12.711863
RightArm 15.565620 -10.425948 87.319275
RightForeArm 14.538092 -0.000000 7.948131
RightHand 0.064429 -0.000000 18.040665
RightHandThumb1 -24.326973 -0.000000 -32.862282
LeftUpLeg -13.290804 -2.865236 1.809390
LeftLeg 22.750938 -0.000000 -0.000000
LeftFoot -17.589938 10.288740 -20.075887
LeftToeBase -7.600777 -0.000000 0.000000
RightUpLeg -1.674097 1.802448 6.018594
RightLeg -7.486455 -0.000000 0.000000
RightFoot -2.758328 -14.445447 7.225480
RightToeBase -4.776233 -0.000000 0.000000
